{
    "streams": [
        {
            "index": 0,
            "codec_name": "hevc",
            "codec_long_name": "H.265 / HEVC (High Efficiency Video Coding)",
            "profile": "Main 10",
            "codec_type": "video",
            "codec_tag_string": "[0][0][0][0]",
            "codec_tag": "0x0000",
            "width": 1920,
            "height": 1080,
            "coded_width": 1920,
            "coded_height": 1080,
            "closed_captions": 0,
            "film_grain": 0,
            "has_b_frames": 4,
            "sample_aspect_ratio": "1:1",
            "display_aspect_ratio": "16:9",
            "pix_fmt": "yuv420p10le",
            "level": 120,
            "color_range": "tv",
            "color_space": "bt2020nc",
            "color_transfer": "smpte2084",
            "color_primaries": "bt2020",
            "chroma_location": "topleft",
            "refs": 1,
            "r_frame_rate": "24/1",
            "avg_frame_rate": "24/1",
            "time_base": "1/1000",
            "start_pts": 0,
            "start_time": "0.000000",
            "nb_read_frames": "185013",
            "extradata_size": 183,
            "disposition": {
                "default": 1,
                "dub": 0,
                "original": 0,
                "comment": 0,
                "lyrics": 0,
                "karaoke": 0,
                "forced": 0,
                "hearing_impaired": 0,
                "visual_impaired": 0,
                "clean_effects": 0,
                "attached_pic": 0,
                "timed_thumbnails": 0,
                "captions": 0,
                "descriptions": 0,
                "metadata": 0,
                "dependent": 0,
                "still_image": 0
            },
            "tags": {
                "BPS": "1585291",
                "DURATION": "02:08:28.875000000",
                "NUMBER_OF_FRAMES": "185013",
                "NUMBER_OF_BYTES": "1527602045",
                "_STATISTICS_WRITING_APP": "mkvmerge v71.1.0 ('Fortitude') 64-bit",
                "_STATISTICS_WRITING_DATE_UTC": "2023-01-06 08:42:02",
                "_STATISTICS_TAGS": "BPS DURATION NUMBER_OF_FRAMES NUMBER_OF_BYTES"
            },
            "side_data_list": [
                {
                    "side_data_type": "DOVI configuration record",
                    "dv_version_major": 1,
                    "dv_version_minor": 0,
                    "dv_profile": 8,
                    "dv_level": 3,
                    "rpu_present_flag": 1,
                    "el_present_flag": 0,
                    "bl_present_flag": 1,
                    "dv_bl_signal_compatibility_id": 1
                }
            ]
        },
        {
            "index": 1,
            "codec_name": "eac3",
            "codec_long_name": "ATSC A/52B (AC-3, E-AC-3)",
            "codec_type": "audio",
            "codec_tag_string": "[0][0][0][0]",
            "codec_tag": "0x0000",
            "sample_fmt": "fltp",
            "sample_rate": "48000",
            "channels": 6,
            "channel_layout": "5.1(side)",
            "bits_per_sample": 0,
            "initial_padding": 0,
            "r_frame_rate": "0/0",
            "avg_frame_rate": "0/0",
            "time_base": "1/1000",
            "start_pts": 0,
            "start_time": "0.000000",
            "bit_rate": "768000",
            "nb_read_frames": "244021",
            "disposition": {
                "default": 1,
                "dub": 0,
                "original": 0,
                "comment": 0,
                "lyrics": 0,
                "karaoke": 0,
                "forced": 0,
                "hearing_impaired": 0,
                "visual_impaired": 0,
                "clean_effects": 0,
                "attached_pic": 0,
                "timed_thumbnails": 0,
                "captions": 0,
                "descriptions": 0,
                "metadata": 0,
                "dependent": 0,
                "still_image": 0
            },
            "tags": {
                "language": "ger",
                "title": "German",
                "BPS": "768000",
                "DURATION": "02:10:08.672000000",
                "NUMBER_OF_FRAMES": "244021",
                "NUMBER_OF_BYTES": "749632512",
                "_STATISTICS_WRITING_APP": "mkvmerge v71.1.0 ('Fortitude') 64-bit",
                "_STATISTICS_WRITING_DATE_UTC": "2023-01-06 08:42:02",
                "_STATISTICS_TAGS": "BPS DURATION NUMBER_OF_FRAMES NUMBER_OF_BYTES"
            }
        },
        {
            "index": 2,
            "codec_name": "eac3",
            "codec_long_name": "ATSC A/52B (AC-3, E-AC-3)",
            "codec_type": "audio",
            "codec_tag_string": "[0][0][0][0]",
            "codec_tag": "0x0000",
            "sample_fmt": "fltp",
            "sample_rate": "48000",
            "channels": 6,
            "channel_layout": "5.1(side)",
            "bits_per_sample": 0,
            "initial_padding": 0,
            "r_frame_rate": "0/0",
            "avg_frame_rate": "0/0",
            "time_base": "1/1000",
            "start_pts": 0,
            "start_time": "0.000000",
            "bit_rate": "768000",
            "nb_read_frames": "244021",
            "disposition": {
                "default": 0,
                "dub": 0,
                "original": 0,
                "comment": 0,
                "lyrics": 0,
                "karaoke": 0,
                "forced": 0,
                "hearing_impaired": 0,
                "visual_impaired": 0,
                "clean_effects": 0,
                "attached_pic": 0,
                "timed_thumbnails": 0,
                "captions": 0,
                "descriptions": 0,
                "metadata": 0,
                "dependent": 0,
                "still_image": 0
            },
            "tags": {
                "language": "eng",
                "title": "English",
                "BPS": "768000",
                "DURATION": "02:10:08.672000000",
                "NUMBER_OF_FRAMES": "244021",
                "NUMBER_OF_BYTES": "749632512",
                "_STATISTICS_WRITING_APP": "mkvmerge v71.1.0 ('Fortitude') 64-bit",
                "_STATISTICS_WRITING_DATE_UTC": "2023-01-06 08:42:02",
                "_STATISTICS_TAGS": "BPS DURATION NUMBER_OF_FRAMES NUMBER_OF_BYTES"
            }
        },
        {
            "index": 3,
            "codec_name": "subrip",
            "codec_long_name": "SubRip subtitle",
            "codec_type": "subtitle",
            "codec_tag_string": "[0][0][0][0]",
            "codec_tag": "0x0000",
            "r_frame_rate": "0/0",
            "avg_frame_rate": "0/0",
            "time_base": "1/1000",
            "start_pts": 0,
            "start_time": "0.000000",
            "duration_ts": 7808672,
            "duration": "7808.672000",
            "nb_read_frames": "26",
            "disposition": {
                "default": 1,
                "dub": 0,
                "original": 0,
                "comment": 0,
                "lyrics": 0,
                "karaoke": 0,
                "forced": 1,
                "hearing_impaired": 0,
                "visual_impaired": 0,
                "clean_effects": 0,
                "attached_pic": 0,
                "timed_thumbnails": 0,
                "captions": 0,
                "descriptions": 0,
                "metadata": 0,
                "dependent": 0,
                "still_image": 0
            },
            "tags": {
                "language": "ger",
                "title": "German (Forced)",
                "BPS": "0",
                "DURATION": "02:07:43.291000000",
                "NUMBER_OF_FRAMES": "26",
                "NUMBER_OF_BYTES": "911",
                "_STATISTICS_WRITING_APP": "mkvmerge v71.1.0 ('Fortitude') 64-bit",
                "_STATISTICS_WRITING_DATE_UTC": "2023-01-06 08:42:02",
                "_STATISTICS_TAGS": "BPS DURATION NUMBER_OF_FRAMES NUMBER_OF_BYTES"
            }
        },
        {
            "index": 4,
            "codec_name": "subrip",
            "codec_long_name": "SubRip subtitle",
            "codec_type": "subtitle",
            "codec_tag_string": "[0][0][0][0]",
            "codec_tag": "0x0000",
            "r_frame_rate": "0/0",
            "avg_frame_rate": "0/0",
            "time_base": "1/1000",
            "start_pts": 0,
            "start_time": "0.000000",
            "duration_ts": 7808672,
            "duration": "7808.672000",
            "nb_read_frames": "1314",
            "disposition": {
                "default": 0,
                "dub": 0,
                "original": 0,
                "comment": 0,
                "lyrics": 0,
                "karaoke": 0,
                "forced": 0,
                "hearing_impaired": 0,
                "visual_impaired": 0,
                "clean_effects": 0,
                "attached_pic": 0,
                "timed_thumbnails": 0,
                "captions": 0,
                "descriptions": 0,
                "metadata": 0,
                "dependent": 0,
                "still_image": 0
            },
            "tags": {
                "language": "ger",
                "title": "German",
                "BPS": "48",
                "DURATION": "02:07:37.416000000",
                "NUMBER_OF_FRAMES": "1314",
                "NUMBER_OF_BYTES": "46802",
                "_STATISTICS_WRITING_APP": "mkvmerge v71.1.0 ('Fortitude') 64-bit",
                "_STATISTICS_WRITING_DATE_UTC": "2023-01-06 08:42:02",
                "_STATISTICS_TAGS": "BPS DURATION NUMBER_OF_FRAMES NUMBER_OF_BYTES"
            }
        },
        {
            "index": 5,
            "codec_name": "subrip",
            "codec_long_name": "SubRip subtitle",
            "codec_type": "subtitle",
            "codec_tag_string": "[0][0][0][0]",
            "codec_tag": "0x0000",
            "r_frame_rate": "0/0",
            "avg_frame_rate": "0/0",
            "time_base": "1/1000",
            "start_pts": 0,
            "start_time": "0.000000",
            "duration_ts": 7808672,
            "duration": "7808.672000",
            "nb_read_frames": "1338",
            "disposition": {
                "default": 0,
                "dub": 0,
                "original": 0,
                "comment": 0,
                "lyrics": 0,
                "karaoke": 0,
                "forced": 0,
                "hearing_impaired": 0,
                "visual_impaired": 0,
                "clean_effects": 0,
                "attached_pic": 0,
                "timed_thumbnails": 0,
                "captions": 0,
                "descriptions": 0,
                "metadata": 0,
                "dependent": 0,
                "still_image": 0
            },
            "tags": {
                "language": "ara",
                "title": "Arabic",
                "BPS": "79",
                "DURATION": "02:07:48.083000000",
                "NUMBER_OF_FRAMES": "1338",
                "NUMBER_OF_BYTES": "76680",
                "_STATISTICS_WRITING_APP": "mkvmerge v71.1.0 ('Fortitude') 64-bit",
                "_STATISTICS_WRITING_DATE_UTC": "2023-01-06 08:42:02",
                "_STATISTICS_TAGS": "BPS DURATION NUMBER_OF_FRAMES NUMBER_OF_BYTES"
            }
        },
        {
            "index": 6,
            "codec_name": "subrip",
            "codec_long_name": "SubRip subtitle",
            "codec_type": "subtitle",
            "codec_tag_string": "[0][0][0][0]",
            "codec_tag": "0x0000",
            "r_frame_rate": "0/0",
            "avg_frame_rate": "0/0",
            "time_base": "1/1000",
            "start_pts": 0,
            "start_time": "0.000000",
            "duration_ts": 7808672,
            "duration": "7808.672000",
            "nb_read_frames": "1370",
            "disposition": {
                "default": 0,
                "dub": 0,
                "original": 0,
                "comment": 0,
                "lyrics": 0,
                "karaoke": 0,
                "forced": 0,
                "hearing_impaired": 0,
                "visual_impaired": 0,
                "clean_effects": 0,
                "attached_pic": 0,
                "timed_thumbnails": 0,
                "captions": 0,
                "descriptions": 0,
                "metadata": 0,
                "dependent": 0,
                "still_image": 0
            },
            "tags": {
                "language": "cat",
                "title": "Catalan",
                "BPS": "49",
                "DURATION": "02:07:44.916000000",
                "NUMBER_OF_FRAMES": "1370",
                "NUMBER_OF_BYTES": "47151",
                "_STATISTICS_WRITING_APP": "mkvmerge v71.1.0 ('Fortitude') 64-bit",
                "_STATISTICS_WRITING_DATE_UTC": "2023-01-06 08:42:02",
                "_STATISTICS_TAGS": "BPS DURATION NUMBER_OF_FRAMES NUMBER_OF_BYTES"
            }
        },
        {
            "index": 7,
            "codec_name": "subrip",
            "codec_long_name": "SubRip subtitle",
            "codec_type": "subtitle",
            "codec_tag_string": "[0][0][0][0]",
            "codec_tag": "0x0000",
            "r_frame_rate": "0/0",
            "avg_frame_rate": "0/0",
            "time_base": "1/1000",
            "start_pts": 0,
            "start_time": "0.000000",
            "duration_ts": 7808672,
            "duration": "7808.672000",
            "nb_read_frames": "1336",
            "disposition": {
                "default": 0,
                "dub": 0,
                "original": 0,
                "comment": 0,
                "lyrics": 0,
                "karaoke": 0,
                "forced": 0,
                "hearing_impaired": 0,
                "visual_impaired": 0,
                "clean_effects": 0,
                "attached_pic": 0,
                "timed_thumbnails": 0,
                "captions": 0,
                "descriptions": 0,
                "metadata": 0,
                "dependent": 0,
                "still_image": 0
            },
            "tags": {
                "language": "cze",
                "title": "Czech",
                "BPS": "46",
                "DURATION": "02:07:48.083000000",
                "NUMBER_OF_FRAMES": "1336",
                "NUMBER_OF_BYTES": "44185",
                "_STATISTICS_WRITING_APP": "mkvmerge v71.1.0 ('Fortitude') 64-bit",
                "_STATISTICS_WRITING_DATE_UTC": "2023-01-06 08:42:02",
                "_STATISTICS_TAGS": "BPS DURATION NUMBER_OF_FRAMES NUMBER_OF_BYTES"
            }
        },
        {
            "index": 8,
            "codec_name": "subrip",
            "codec_long_name": "SubRip subtitle",
            "codec_type": "subtitle",
            "codec_tag_string": "[0][0][0][0]",
            "codec_tag": "0x0000",
            "r_frame_rate": "0/0",
            "avg_frame_rate": "0/0",
            "time_base": "1/1000",
            "start_pts": 0,
            "start_time": "0.000000",
            "duration_ts": 7808672,
            "duration": "7808.672000",
            "nb_read_frames": "1335",
            "disposition": {
                "default": 0,
                "dub": 0,
                "original": 0,
                "comment": 0,
                "lyrics": 0,
                "karaoke": 0,
                "forced": 0,
                "hearing_impaired": 0,
                "visual_impaired": 0,
                "clean_effects": 0,
                "attached_pic": 0,
                "timed_thumbnails": 0,
                "captions": 0,
                "descriptions": 0,
                "metadata": 0,
                "dependent": 0,
                "still_image": 0
            },
            "tags": {
                "language": "dan",
                "title": "Danish",
                "BPS": "44",
                "DURATION": "02:07:48.083000000",
                "NUMBER_OF_FRAMES": "1335",
                "NUMBER_OF_BYTES": "43130",
                "_STATISTICS_WRITING_APP": "mkvmerge v71.1.0 ('Fortitude') 64-bit",
                "_STATISTICS_WRITING_DATE_UTC": "2023-01-06 08:42:02",
                "_STATISTICS_TAGS": "BPS DURATION NUMBER_OF_FRAMES NUMBER_OF_BYTES"
            }
        },
        {
            "index": 9,
            "codec_name": "subrip",
            "codec_long_name": "SubRip subtitle",
            "codec_type": "subtitle",
            "codec_tag_string": "[0][0][0][0]",
            "codec_tag": "0x0000",
            "r_frame_rate": "0/0",
            "avg_frame_rate": "0/0",
            "time_base": "1/1000",
            "start_pts": 0,
            "start_time": "0.000000",
            "duration_ts": 7808672,
            "duration": "7808.672000",
            "nb_read_frames": "1376",
            "disposition": {
                "default": 0,
                "dub": 0,
                "original": 0,
                "comment": 0,
                "lyrics": 0,
                "karaoke": 0,
                "forced": 0,
                "hearing_impaired": 0,
                "visual_impaired": 0,
                "clean_effects": 0,
                "attached_pic": 0,
                "timed_thumbnails": 0,
                "captions": 0,
                "descriptions": 0,
                "metadata": 0,
                "dependent": 0,
                "still_image": 0
            },
            "tags": {
                "language": "gre",
                "title": "Modern Greek (1453-)",
                "BPS": "81",
                "DURATION": "02:07:41.334000000",
                "NUMBER_OF_FRAMES": "1376",
                "NUMBER_OF_BYTES": "78072",
                "_STATISTICS_WRITING_APP": "mkvmerge v71.1.0 ('Fortitude') 64-bit",
                "_STATISTICS_WRITING_DATE_UTC": "2023-01-06 08:42:02",
                "_STATISTICS_TAGS": "BPS DURATION NUMBER_OF_FRAMES NUMBER_OF_BYTES"
            }
        },
        {
            "index": 10,
            "codec_name": "subrip",
            "codec_long_name": "SubRip subtitle",
            "codec_type": "subtitle",
            "codec_tag_string": "[0][0][0][0]",
            "codec_tag": "0x0000",
            "r_frame_rate": "0/0",
            "avg_frame_rate": "0/0",
            "time_base": "1/1000",
            "start_pts": 0,
            "start_time": "0.000000",
            "duration_ts": 7808672,
            "duration": "7808.672000",
            "nb_read_frames": "1557",
            "disposition": {
                "default": 0,
                "dub": 0,
                "original": 0,
                "comment": 0,
                "lyrics": 0,
                "karaoke": 0,
                "forced": 0,
                "hearing_impaired": 0,
                "visual_impaired": 0,
                "clean_effects": 0,
                "attached_pic": 0,
                "timed_thumbnails": 0,
                "captions": 0,
                "descriptions": 0,
                "metadata": 0,
                "dependent": 0,
                "still_image": 0
            },
            "tags": {
                "language": "eng",
                "title": "English (SDH)",
                "BPS": "57",
                "DURATION": "02:02:12.875000000",
                "NUMBER_OF_FRAMES": "1557",
                "NUMBER_OF_BYTES": "52756",
                "_STATISTICS_WRITING_APP": "mkvmerge v71.1.0 ('Fortitude') 64-bit",
                "_STATISTICS_WRITING_DATE_UTC": "2023-01-06 08:42:02",
                "_STATISTICS_TAGS": "BPS DURATION NUMBER_OF_FRAMES NUMBER_OF_BYTES"
            }
        },
        {
            "index": 11,
            "codec_name": "subrip",
            "codec_long_name": "SubRip subtitle",
            "codec_type": "subtitle",
            "codec_tag_string": "[0][0][0][0]",
            "codec_tag": "0x0000",
            "r_frame_rate": "0/0",
            "avg_frame_rate": "0/0",
            "time_base": "1/1000",
            "start_pts": 0,
            "start_time": "0.000000",
            "duration_ts": 7808672,
            "duration": "7808.672000",
            "nb_read_frames": "1338",
            "disposition": {
                "default": 0,
                "dub": 0,
                "original": 0,
                "comment": 0,
                "lyrics": 0,
                "karaoke": 0,
                "forced": 0,
                "hearing_impaired": 0,
                "visual_impaired": 0,
                "clean_effects": 0,
                "attached_pic": 0,
                "timed_thumbnails": 0,
                "captions": 0,
                "descriptions": 0,
                "metadata": 0,
                "dependent": 0,
                "still_image": 0
            },
            "tags": {
                "language": "spa",
                "title": "Spanish",
                "BPS": "48",
                "DURATION": "02:07:48.083000000",
                "NUMBER_OF_FRAMES": "1338",
                "NUMBER_OF_BYTES": "46892",
                "_STATISTICS_WRITING_APP": "mkvmerge v71.1.0 ('Fortitude') 64-bit",
                "_STATISTICS_WRITING_DATE_UTC": "2023-01-06 08:42:02",
                "_STATISTICS_TAGS": "BPS DURATION NUMBER_OF_FRAMES NUMBER_OF_BYTES"
            }
        },
        {
            "index": 12,
            "codec_name": "subrip",
            "codec_long_name": "SubRip subtitle",
            "codec_type": "subtitle",
            "codec_tag_string": "[0][0][0][0]",
            "codec_tag": "0x0000",
            "r_frame_rate": "0/0",
            "avg_frame_rate": "0/0",
            "time_base": "1/1000",
            "start_pts": 0,
            "start_time": "0.000000",
            "duration_ts": 7808672,
            "duration": "7808.672000",
            "nb_read_frames": "1337",
            "disposition": {
                "default": 0,
                "dub": 0,
                "original": 0,
                "comment": 0,
                "lyrics": 0,
                "karaoke": 0,
                "forced": 0,
                "hearing_impaired": 0,
                "visual_impaired": 0,
                "clean_effects": 0,
                "attached_pic": 0,
                "timed_thumbnails": 0,
                "captions": 0,
                "descriptions": 0,
                "metadata": 0,
                "dependent": 0,
                "still_image": 0
            },
            "tags": {
                "language": "spa",
                "title": "Spanish",
                "BPS": "48",
                "DURATION": "02:07:48.083000000",
                "NUMBER_OF_FRAMES": "1337",
                "NUMBER_OF_BYTES": "46069",
                "_STATISTICS_WRITING_APP": "mkvmerge v71.1.0 ('Fortitude') 64-bit",
                "_STATISTICS_WRITING_DATE_UTC": "2023-01-06 08:42:02",
                "_STATISTICS_TAGS": "BPS DURATION NUMBER_OF_FRAMES NUMBER_OF_BYTES"
            }
        },
        {
            "index": 13,
            "codec_name": "subrip",
            "codec_long_name": "SubRip subtitle",
            "codec_type": "subtitle",
            "codec_tag_string": "[0][0][0][0]",
            "codec_tag": "0x0000",
            "r_frame_rate": "0/0",
            "avg_frame_rate": "0/0",
            "time_base": "1/1000",
            "start_pts": 0,
            "start_time": "0.000000",
            "duration_ts": 7808672,
            "duration": "7808.672000",
            "nb_read_frames": "1356",
            "disposition": {
                "default": 0,
                "dub": 0,
                "original": 0,
                "comment": 0,
                "lyrics": 0,
                "karaoke": 0,
                "forced": 0,
                "hearing_impaired": 0,
                "visual_impaired": 0,
                "clean_effects": 0,
                "attached_pic": 0,
                "timed_thumbnails": 0,
                "captions": 0,
                "descriptions": 0,
                "metadata": 0,
                "dependent": 0,
                "still_image": 0
            },
            "tags": {
                "language": "baq",
                "title": "Basque",
                "BPS": "46",
                "DURATION": "02:07:48.250000000",
                "NUMBER_OF_FRAMES": "1356",
                "NUMBER_OF_BYTES": "44133",
                "_STATISTICS_WRITING_APP": "mkvmerge v71.1.0 ('Fortitude') 64-bit",
                "_STATISTICS_WRITING_DATE_UTC": "2023-01-06 08:42:02",
                "_STATISTICS_TAGS": "BPS DURATION NUMBER_OF_FRAMES NUMBER_OF_BYTES"
            }
        },
        {
            "index": 14,
            "codec_name": "subrip",
            "codec_long_name": "SubRip subtitle",
            "codec_type": "subtitle",
            "codec_tag_string": "[0][0][0][0]",
            "codec_tag": "0x0000",
            "r_frame_rate": "0/0",
            "avg_frame_rate": "0/0",
            "time_base": "1/1000",
            "start_pts": 0,
            "start_time": "0.000000",
            "duration_ts": 7808672,
            "duration": "7808.672000",
            "nb_read_frames": "1333",
            "disposition": {
                "default": 0,
                "dub": 0,
                "original": 0,
                "comment": 0,
                "lyrics": 0,
                "karaoke": 0,
                "forced": 0,
                "hearing_impaired": 0,
                "visual_impaired": 0,
                "clean_effects": 0,
                "attached_pic": 0,
                "timed_thumbnails": 0,
                "captions": 0,
                "descriptions": 0,
                "metadata": 0,
                "dependent": 0,
                "still_image": 0
            },
            "tags": {
                "language": "fin",
                "title": "Finnish",
                "BPS": "44",
                "DURATION": "02:07:48.083000000",
                "NUMBER_OF_FRAMES": "1333",
                "NUMBER_OF_BYTES": "42707",
                "_STATISTICS_WRITING_APP": "mkvmerge v71.1.0 ('Fortitude') 64-bit",
                "_STATISTICS_WRITING_DATE_UTC": "2023-01-06 08:42:02",
                "_STATISTICS_TAGS": "BPS DURATION NUMBER_OF_FRAMES NUMBER_OF_BYTES"
            }
        },
        {
            "index": 15,
            "codec_name": "subrip",
            "codec_long_name": "SubRip subtitle",
            "codec_type": "subtitle",
            "codec_tag_string": "[0][0][0][0]",
            "codec_tag": "0x0000",
            "r_frame_rate": "0/0",
            "avg_frame_rate": "0/0",
            "time_base": "1/1000",
            "start_pts": 0,
            "start_time": "0.000000",
            "duration_ts": 7808672,
            "duration": "7808.672000",
            "nb_read_frames": "1341",
            "disposition": {
                "default": 0,
                "dub": 0,
                "original": 0,
                "comment": 0,
                "lyrics": 0,
                "karaoke": 0,
                "forced": 0,
                "hearing_impaired": 0,
                "visual_impaired": 0,
                "clean_effects": 0,
                "attached_pic": 0,
                "timed_thumbnails": 0,
                "captions": 0,
                "descriptions": 0,
                "metadata": 0,
                "dependent": 0,
                "still_image": 0
            },
            "tags": {
                "language": "fil",
                "title": "Filipino",
                "BPS": "43",
                "DURATION": "02:07:48.083000000",
                "NUMBER_OF_FRAMES": "1341",
                "NUMBER_OF_BYTES": "41456",
                "_STATISTICS_WRITING_APP": "mkvmerge v71.1.0 ('Fortitude') 64-bit",
                "_STATISTICS_WRITING_DATE_UTC": "2023-01-06 08:42:02",
                "_STATISTICS_TAGS": "BPS DURATION NUMBER_OF_FRAMES NUMBER_OF_BYTES"
            }
        },
        {
            "index": 16,
            "codec_name": "subrip",
            "codec_long_name": "SubRip subtitle",
            "codec_type": "subtitle",
            "codec_tag_string": "[0][0][0][0]",
            "codec_tag": "0x0000",
            "r_frame_rate": "0/0",
            "avg_frame_rate": "0/0",
            "time_base": "1/1000",
            "start_pts": 0,
            "start_time": "0.000000",
            "duration_ts": 7808672,
            "duration": "7808.672000",
            "nb_read_frames": "1430",
            "disposition": {
                "default": 0,
                "dub": 0,
                "original": 0,
                "comment": 0,
                "lyrics": 0,
                "karaoke": 0,
                "forced": 0,
                "hearing_impaired": 0,
                "visual_impaired": 0,
                "clean_effects": 0,
                "attached_pic": 0,
                "timed_thumbnails": 0,
                "captions": 0,
                "descriptions": 0,
                "metadata": 0,
                "dependent": 0,
                "still_image": 0
            },
            "tags": {
                "language": "fre",
                "title": "French",
                "BPS": "50",
                "DURATION": "02:07:48.083000000",
                "NUMBER_OF_FRAMES": "1430",
                "NUMBER_OF_BYTES": "48169",
                "_STATISTICS_WRITING_APP": "mkvmerge v71.1.0 ('Fortitude') 64-bit",
                "_STATISTICS_WRITING_DATE_UTC": "2023-01-06 08:42:02",
                "_STATISTICS_TAGS": "BPS DURATION NUMBER_OF_FRAMES NUMBER_OF_BYTES"
            }
        },
        {
            "index": 17,
            "codec_name": "subrip",
            "codec_long_name": "SubRip subtitle",
            "codec_type": "subtitle",
            "codec_tag_string": "[0][0][0][0]",
            "codec_tag": "0x0000",
            "r_frame_rate": "0/0",
            "avg_frame_rate": "0/0",
            "time_base": "1/1000",
            "start_pts": 0,
            "start_time": "0.000000",
            "duration_ts": 7808672,
            "duration": "7808.672000",
            "nb_read_frames": "1336",
            "disposition": {
                "default": 0,
                "dub": 0,
                "original": 0,
                "comment": 0,
                "lyrics": 0,
                "karaoke": 0,
                "forced": 0,
                "hearing_impaired": 0,
                "visual_impaired": 0,
                "clean_effects": 0,
                "attached_pic": 0,
                "timed_thumbnails": 0,
                "captions": 0,
                "descriptions": 0,
                "metadata": 0,
                "dependent": 0,
                "still_image": 0
            },
            "tags": {
                "language": "glg",
                "title": "Galician",
                "BPS": "43",
                "DURATION": "02:07:48.083000000",
                "NUMBER_OF_FRAMES": "1336",
                "NUMBER_OF_BYTES": "41317",
                "_STATISTICS_WRITING_APP": "mkvmerge v71.1.0 ('Fortitude') 64-bit",
                "_STATISTICS_WRITING_DATE_UTC": "2023-01-06 08:42:02",
                "_STATISTICS_TAGS": "BPS DURATION NUMBER_OF_FRAMES NUMBER_OF_BYTES"
            }
        },
        {
            "index": 18,
            "codec_name": "subrip",
            "codec_long_name": "SubRip subtitle",
            "codec_type": "subtitle",
            "codec_tag_string": "[0][0][0][0]",
            "codec_tag": "0x0000",
            "r_frame_rate": "0/0",
            "avg_frame_rate": "0/0",
            "time_base": "1/1000",
            "start_pts": 0,
            "start_time": "0.000000",
            "duration_ts": 7808672,
            "duration": "7808.672000",
            "nb_read_frames": "1335",
            "disposition": {
                "default": 0,
                "dub": 0,
                "original": 0,
                "comment": 0,
                "lyrics": 0,
                "karaoke": 0,
                "forced": 0,
                "hearing_impaired": 0,
                "visual_impaired": 0,
                "clean_effects": 0,
                "attached_pic": 0,
                "timed_thumbnails": 0,
                "captions": 0,
                "descriptions": 0,
                "metadata": 0,
                "dependent": 0,
                "still_image": 0
            },
            "tags": {
                "language": "heb",
                "title": "Hebrew",
                "BPS": "73",
                "DURATION": "02:07:48.083000000",
                "NUMBER_OF_FRAMES": "1335",
                "NUMBER_OF_BYTES": "70139",
                "_STATISTICS_WRITING_APP": "mkvmerge v71.1.0 ('Fortitude') 64-bit",
                "_STATISTICS_WRITING_DATE_UTC": "2023-01-06 08:42:02",
                "_STATISTICS_TAGS": "BPS DURATION NUMBER_OF_FRAMES NUMBER_OF_BYTES"
            }
        },
        {
            "index": 19,
            "codec_name": "subrip",
            "codec_long_name": "SubRip subtitle",
            "codec_type": "subtitle",
            "codec_tag_string": "[0][0][0][0]",
            "codec_tag": "0x0000",
            "r_frame_rate": "0/0",
            "avg_frame_rate": "0/0",
            "time_base": "1/1000",
            "start_pts": 0,
            "start_time": "0.000000",
            "duration_ts": 7808672,
            "duration": "7808.672000",
            "nb_read_frames": "1338",
            "disposition": {
                "default": 0,
                "dub": 0,
                "original": 0,
                "comment": 0,
                "lyrics": 0,
                "karaoke": 0,
                "forced": 0,
                "hearing_impaired": 0,
                "visual_impaired": 0,
                "clean_effects": 0,
                "attached_pic": 0,
                "timed_thumbnails": 0,
                "captions": 0,
                "descriptions": 0,
                "metadata": 0,
                "dependent": 0,
                "still_image": 0
            },
            "tags": {
                "language": "hrv",
                "title": "Croatian",
                "BPS": "44",
                "DURATION": "02:07:48.083000000",
                "NUMBER_OF_FRAMES": "1338",
                "NUMBER_OF_BYTES": "43096",
                "_STATISTICS_WRITING_APP": "mkvmerge v71.1.0 ('Fortitude') 64-bit",
                "_STATISTICS_WRITING_DATE_UTC": "2023-01-06 08:42:02",
                "_STATISTICS_TAGS": "BPS DURATION NUMBER_OF_FRAMES NUMBER_OF_BYTES"
            }
        },
        {
            "index": 20,
            "codec_name": "subrip",
            "codec_long_name": "SubRip subtitle",
            "codec_type": "subtitle",
            "codec_tag_string": "[0][0][0][0]",
            "codec_tag": "0x0000",
            "r_frame_rate": "0/0",
            "avg_frame_rate": "0/0",
            "time_base": "1/1000",
            "start_pts": 0,
            "start_time": "0.000000",
            "duration_ts": 7808672,
            "duration": "7808.672000",
            "nb_read_frames": "1328",
            "disposition": {
                "default": 0,
                "dub": 0,
                "original": 0,
                "comment": 0,
                "lyrics": 0,
                "karaoke": 0,
                "forced": 0,
                "hearing_impaired": 0,
                "visual_impaired": 0,
                "clean_effects": 0,
                "attached_pic": 0,
                "timed_thumbnails": 0,
                "captions": 0,
                "descriptions": 0,
                "metadata": 0,
                "dependent": 0,
                "still_image": 0
            },
            "tags": {
                "language": "hun",
                "title": "Hungarian",
                "BPS": "48",
                "DURATION": "02:07:48.083000000",
                "NUMBER_OF_FRAMES": "1328",
                "NUMBER_OF_BYTES": "46070",
                "_STATISTICS_WRITING_APP": "mkvmerge v71.1.0 ('Fortitude') 64-bit",
                "_STATISTICS_WRITING_DATE_UTC": "2023-01-06 08:42:02",
                "_STATISTICS_TAGS": "BPS DURATION NUMBER_OF_FRAMES NUMBER_OF_BYTES"
            }
        },
        {
            "index": 21,
            "codec_name": "subrip",
            "codec_long_name": "SubRip subtitle",
            "codec_type": "subtitle",
            "codec_tag_string": "[0][0][0][0]",
            "codec_tag": "0x0000",
            "r_frame_rate": "0/0",
            "avg_frame_rate": "0/0",
            "time_base": "1/1000",
            "start_pts": 0,
            "start_time": "0.000000",
            "duration_ts": 7808672,
            "duration": "7808.672000",
            "nb_read_frames": "1336",
            "disposition": {
                "default": 0,
                "dub": 0,
                "original": 0,
                "comment": 0,
                "lyrics": 0,
                "karaoke": 0,
                "forced": 0,
                "hearing_impaired": 0,
                "visual_impaired": 0,
                "clean_effects": 0,
                "attached_pic": 0,
                "timed_thumbnails": 0,
                "captions": 0,
                "descriptions": 0,
                "metadata": 0,
                "dependent": 0,
                "still_image": 0
            },
            "tags": {
                "language": "ind",
                "title": "Indonesian",
                "BPS": "45",
                "DURATION": "02:07:48.083000000",
                "NUMBER_OF_FRAMES": "1336",
                "NUMBER_OF_BYTES": "43958",
                "_STATISTICS_WRITING_APP": "mkvmerge v71.1.0 ('Fortitude') 64-bit",
                "_STATISTICS_WRITING_DATE_UTC": "2023-01-06 08:42:02",
                "_STATISTICS_TAGS": "BPS DURATION NUMBER_OF_FRAMES NUMBER_OF_BYTES"
            }
        },
        {
            "index": 22,
            "codec_name": "subrip",
            "codec_long_name": "SubRip subtitle",
            "codec_type": "subtitle",
            "codec_tag_string": "[0][0][0][0]",
            "codec_tag": "0x0000",
            "r_frame_rate": "0/0",
            "avg_frame_rate": "0/0",
            "time_base": "1/1000",
            "start_pts": 0,
            "start_time": "0.000000",
            "duration_ts": 7808672,
            "duration": "7808.672000",
            "nb_read_frames": "1338",
            "disposition": {
                "default": 0,
                "dub": 0,
                "original": 0,
                "comment": 0,
                "lyrics": 0,
                "karaoke": 0,
                "forced": 0,
                "hearing_impaired": 0,
                "visual_impaired": 0,
                "clean_effects": 0,
                "attached_pic": 0,
                "timed_thumbnails": 0,
                "captions": 0,
                "descriptions": 0,
                "metadata": 0,
                "dependent": 0,
                "still_image": 0
            },
            "tags": {
                "language": "ita",
                "title": "Italian",
                "BPS": "47",
                "DURATION": "02:07:48.083000000",
                "NUMBER_OF_FRAMES": "1338",
                "NUMBER_OF_BYTES": "45866",
                "_STATISTICS_WRITING_APP": "mkvmerge v71.1.0 ('Fortitude') 64-bit",
                "_STATISTICS_WRITING_DATE_UTC": "2023-01-06 08:42:02",
                "_STATISTICS_TAGS": "BPS DURATION NUMBER_OF_FRAMES NUMBER_OF_BYTES"
            }
        },
        {
            "index": 23,
            "codec_name": "subrip",
            "codec_long_name": "SubRip subtitle",
            "codec_type": "subtitle",
            "codec_tag_string": "[0][0][0][0]",
            "codec_tag": "0x0000",
            "r_frame_rate": "0/0",
            "avg_frame_rate": "0/0",
            "time_base": "1/1000",
            "start_pts": 0,
            "start_time": "0.000000",
            "duration_ts": 7808672,
            "duration": "7808.672000",
            "nb_read_frames": "1440",
            "disposition": {
                "default": 0,
                "dub": 0,
                "original": 0,
                "comment": 0,
                "lyrics": 0,
                "karaoke": 0,
                "forced": 0,
                "hearing_impaired": 0,
                "visual_impaired": 0,
                "clean_effects": 0,
                "attached_pic": 0,
                "timed_thumbnails": 0,
                "captions": 0,
                "descriptions": 0,
                "metadata": 0,
                "dependent": 0,
                "still_image": 0
            },
            "tags": {
                "language": "jpn",
                "title": "Japanese",
                "BPS": "51",
                "DURATION": "02:07:50.291000000",
                "NUMBER_OF_FRAMES": "1440",
                "NUMBER_OF_BYTES": "49368",
                "_STATISTICS_WRITING_APP": "mkvmerge v71.1.0 ('Fortitude') 64-bit",
                "_STATISTICS_WRITING_DATE_UTC": "2023-01-06 08:42:02",
                "_STATISTICS_TAGS": "BPS DURATION NUMBER_OF_FRAMES NUMBER_OF_BYTES"
            }
        },
        {
            "index": 24,
            "codec_name": "subrip",
            "codec_long_name": "SubRip subtitle",
            "codec_type": "subtitle",
            "codec_tag_string": "[0][0][0][0]",
            "codec_tag": "0x0000",
            "r_frame_rate": "0/0",
            "avg_frame_rate": "0/0",
            "time_base": "1/1000",
            "start_pts": 0,
            "start_time": "0.000000",
            "duration_ts": 7808672,
            "duration": "7808.672000",
            "nb_read_frames": "1337",
            "disposition": {
                "default": 0,
                "dub": 0,
                "original": 0,
                "comment": 0,
                "lyrics": 0,
                "karaoke": 0,
                "forced": 0,
                "hearing_impaired": 0,
                "visual_impaired": 0,
                "clean_effects": 0,
                "attached_pic": 0,
                "timed_thumbnails": 0,
                "captions": 0,
                "descriptions": 0,
                "metadata": 0,
                "dependent": 0,
                "still_image": 0
            },
            "tags": {
                "language": "kor",
                "title": "Korean",
                "BPS": "54",
                "DURATION": "02:07:48.083000000",
                "NUMBER_OF_FRAMES": "1337",
                "NUMBER_OF_BYTES": "52451",
                "_STATISTICS_WRITING_APP": "mkvmerge v71.1.0 ('Fortitude') 64-bit",
                "_STATISTICS_WRITING_DATE_UTC": "2023-01-06 08:42:02",
                "_STATISTICS_TAGS": "BPS DURATION NUMBER_OF_FRAMES NUMBER_OF_BYTES"
            }
        },
        {
            "index": 25,
            "codec_name": "subrip",
            "codec_long_name": "SubRip subtitle",
            "codec_type": "subtitle",
            "codec_tag_string": "[0][0][0][0]",
            "codec_tag": "0x0000",
            "r_frame_rate": "0/0",
            "avg_frame_rate": "0/0",
            "time_base": "1/1000",
            "start_pts": 0,
            "start_time": "0.000000",
            "duration_ts": 7808672,
            "duration": "7808.672000",
            "nb_read_frames": "1336",
            "disposition": {
                "default": 0,
                "dub": 0,
                "original": 0,
                "comment": 0,
                "lyrics": 0,
                "karaoke": 0,
                "forced": 0,
                "hearing_impaired": 0,
                "visual_impaired": 0,
                "clean_effects": 0,
                "attached_pic": 0,
                "timed_thumbnails": 0,
                "captions": 0,
                "descriptions": 0,
                "metadata": 0,
                "dependent": 0,
                "still_image": 0
            },
            "tags": {
                "language": "may",
                "title": "Malay (macrolanguage)",
                "BPS": "45",
                "DURATION": "02:07:48.083000000",
                "NUMBER_OF_FRAMES": "1336",
                "NUMBER_OF_BYTES": "43774",
                "_STATISTICS_WRITING_APP": "mkvmerge v71.1.0 ('Fortitude') 64-bit",
                "_STATISTICS_WRITING_DATE_UTC": "2023-01-06 08:42:02",
                "_STATISTICS_TAGS": "BPS DURATION NUMBER_OF_FRAMES NUMBER_OF_BYTES"
            }
        },
        {
            "index": 26,
            "codec_name": "subrip",
            "codec_long_name": "SubRip subtitle",
            "codec_type": "subtitle",
            "codec_tag_string": "[0][0][0][0]",
            "codec_tag": "0x0000",
            "r_frame_rate": "0/0",
            "avg_frame_rate": "0/0",
            "time_base": "1/1000",
            "start_pts": 0,
            "start_time": "0.000000",
            "duration_ts": 7808672,
            "duration": "7808.672000",
            "nb_read_frames": "1266",
            "disposition": {
                "default": 0,
                "dub": 0,
                "original": 0,
                "comment": 0,
                "lyrics": 0,
                "karaoke": 0,
                "forced": 0,
                "hearing_impaired": 0,
                "visual_impaired": 0,
                "clean_effects": 0,
                "attached_pic": 0,
                "timed_thumbnails": 0,
                "captions": 0,
                "descriptions": 0,
                "metadata": 0,
                "dependent": 0,
                "still_image": 0
            },
            "tags": {
                "language": "nob",
                "title": "Norwegian Bokmål",
                "BPS": "43",
                "DURATION": "02:07:39.583000000",
                "NUMBER_OF_FRAMES": "1266",
                "NUMBER_OF_BYTES": "41901",
                "_STATISTICS_WRITING_APP": "mkvmerge v71.1.0 ('Fortitude') 64-bit",
                "_STATISTICS_WRITING_DATE_UTC": "2023-01-06 08:42:02",
                "_STATISTICS_TAGS": "BPS DURATION NUMBER_OF_FRAMES NUMBER_OF_BYTES"
            }
        },
        {
            "index": 27,
            "codec_name": "subrip",
            "codec_long_name": "SubRip subtitle",
            "codec_type": "subtitle",
            "codec_tag_string": "[0][0][0][0]",
            "codec_tag": "0x0000",
            "r_frame_rate": "0/0",
            "avg_frame_rate": "0/0",
            "time_base": "1/1000",
            "start_pts": 0,
            "start_time": "0.000000",
            "duration_ts": 7808672,
            "duration": "7808.672000",
            "nb_read_frames": "1269",
            "disposition": {
                "default": 0,
                "dub": 0,
                "original": 0,
                "comment": 0,
                "lyrics": 0,
                "karaoke": 0,
                "forced": 0,
                "hearing_impaired": 0,
                "visual_impaired": 0,
                "clean_effects": 0,
                "attached_pic": 0,
                "timed_thumbnails": 0,
                "captions": 0,
                "descriptions": 0,
                "metadata": 0,
                "dependent": 0,
                "still_image": 0
            },
            "tags": {
                "language": "dut",
                "title": "Dutch",
                "BPS": "45",
                "DURATION": "02:07:48.083000000",
                "NUMBER_OF_FRAMES": "1269",
                "NUMBER_OF_BYTES": "43481",
                "_STATISTICS_WRITING_APP": "mkvmerge v71.1.0 ('Fortitude') 64-bit",
                "_STATISTICS_WRITING_DATE_UTC": "2023-01-06 08:42:02",
                "_STATISTICS_TAGS": "BPS DURATION NUMBER_OF_FRAMES NUMBER_OF_BYTES"
            }
        },
        {
            "index": 28,
            "codec_name": "subrip",
            "codec_long_name": "SubRip subtitle",
            "codec_type": "subtitle",
            "codec_tag_string": "[0][0][0][0]",
            "codec_tag": "0x0000",
            "r_frame_rate": "0/0",
            "avg_frame_rate": "0/0",
            "time_base": "1/1000",
            "start_pts": 0,
            "start_time": "0.000000",
            "duration_ts": 7808672,
            "duration": "7808.672000",
            "nb_read_frames": "1324",
            "disposition": {
                "default": 0,
                "dub": 0,
                "original": 0,
                "comment": 0,
                "lyrics": 0,
                "karaoke": 0,
                "forced": 0,
                "hearing_impaired": 0,
                "visual_impaired": 0,
                "clean_effects": 0,
                "attached_pic": 0,
                "timed_thumbnails": 0,
                "captions": 0,
                "descriptions": 0,
                "metadata": 0,
                "dependent": 0,
                "still_image": 0
            },
            "tags": {
                "language": "pol",
                "title": "Polish",
                "BPS": "45",
                "DURATION": "02:07:48.083000000",
                "NUMBER_OF_FRAMES": "1324",
                "NUMBER_OF_BYTES": "43540",
                "_STATISTICS_WRITING_APP": "mkvmerge v71.1.0 ('Fortitude') 64-bit",
                "_STATISTICS_WRITING_DATE_UTC": "2023-01-06 08:42:02",
                "_STATISTICS_TAGS": "BPS DURATION NUMBER_OF_FRAMES NUMBER_OF_BYTES"
            }
        },
        {
            "index": 29,
            "codec_name": "subrip",
            "codec_long_name": "SubRip subtitle",
            "codec_type": "subtitle",
            "codec_tag_string": "[0][0][0][0]",
            "codec_tag": "0x0000",
            "r_frame_rate": "0/0",
            "avg_frame_rate": "0/0",
            "time_base": "1/1000",
            "start_pts": 0,
            "start_time": "0.000000",
            "duration_ts": 7808672,
            "duration": "7808.672000",
            "nb_read_frames": "1324",
            "disposition": {
                "default": 0,
                "dub": 0,
                "original": 0,
                "comment": 0,
                "lyrics": 0,
                "karaoke": 0,
                "forced": 0,
                "hearing_impaired": 0,
                "visual_impaired": 0,
                "clean_effects": 0,
                "attached_pic": 0,
                "timed_thumbnails": 0,
                "captions": 0,
                "descriptions": 0,
                "metadata": 0,
                "dependent": 0,
                "still_image": 0
            },
            "tags": {
                "language": "por",
                "title": "Portuguese",
                "BPS": "45",
                "DURATION": "02:07:48.083000000",
                "NUMBER_OF_FRAMES": "1324",
                "NUMBER_OF_BYTES": "43160",
                "_STATISTICS_WRITING_APP": "mkvmerge v71.1.0 ('Fortitude') 64-bit",
                "_STATISTICS_WRITING_DATE_UTC": "2023-01-06 08:42:02",
                "_STATISTICS_TAGS": "BPS DURATION NUMBER_OF_FRAMES NUMBER_OF_BYTES"
            }
        },
        {
            "index": 30,
            "codec_name": "subrip",
            "codec_long_name": "SubRip subtitle",
            "codec_type": "subtitle",
            "codec_tag_string": "[0][0][0][0]",
            "codec_tag": "0x0000",
            "r_frame_rate": "0/0",
            "avg_frame_rate": "0/0",
            "time_base": "1/1000",
            "start_pts": 0,
            "start_time": "0.000000",
            "duration_ts": 7808672,
            "duration": "7808.672000",
            "nb_read_frames": "1338",
            "disposition": {
                "default": 0,
                "dub": 0,
                "original": 0,
                "comment": 0,
                "lyrics": 0,
                "karaoke": 0,
                "forced": 0,
                "hearing_impaired": 0,
                "visual_impaired": 0,
                "clean_effects": 0,
                "attached_pic": 0,
                "timed_thumbnails": 0,
                "captions": 0,
                "descriptions": 0,
                "metadata": 0,
                "dependent": 0,
                "still_image": 0
            },
            "tags": {
                "language": "por",
                "title": "Portuguese",
                "BPS": "48",
                "DURATION": "02:07:48.083000000",
                "NUMBER_OF_FRAMES": "1338",
                "NUMBER_OF_BYTES": "46476",
                "_STATISTICS_WRITING_APP": "mkvmerge v71.1.0 ('Fortitude') 64-bit",
                "_STATISTICS_WRITING_DATE_UTC": "2023-01-06 08:42:02",
                "_STATISTICS_TAGS": "BPS DURATION NUMBER_OF_FRAMES NUMBER_OF_BYTES"
            }
        },
        {
            "index": 31,
            "codec_name": "subrip",
            "codec_long_name": "SubRip subtitle",
            "codec_type": "subtitle",
            "codec_tag_string": "[0][0][0][0]",
            "codec_tag": "0x0000",
            "r_frame_rate": "0/0",
            "avg_frame_rate": "0/0",
            "time_base": "1/1000",
            "start_pts": 0,
            "start_time": "0.000000",
            "duration_ts": 7808672,
            "duration": "7808.672000",
            "nb_read_frames": "1336",
            "disposition": {
                "default": 0,
                "dub": 0,
                "original": 0,
                "comment": 0,
                "lyrics": 0,
                "karaoke": 0,
                "forced": 0,
                "hearing_impaired": 0,
                "visual_impaired": 0,
                "clean_effects": 0,
                "attached_pic": 0,
                "timed_thumbnails": 0,
                "captions": 0,
                "descriptions": 0,
                "metadata": 0,
                "dependent": 0,
                "still_image": 0
            },
            "tags": {
                "language": "rum",
                "title": "Romanian",
                "BPS": "51",
                "DURATION": "02:07:48.083000000",
                "NUMBER_OF_FRAMES": "1336",
                "NUMBER_OF_BYTES": "49409",
                "_STATISTICS_WRITING_APP": "mkvmerge v71.1.0 ('Fortitude') 64-bit",
                "_STATISTICS_WRITING_DATE_UTC": "2023-01-06 08:42:02",
                "_STATISTICS_TAGS": "BPS DURATION NUMBER_OF_FRAMES NUMBER_OF_BYTES"
            }
        },
        {
            "index": 32,
            "codec_name": "subrip",
            "codec_long_name": "SubRip subtitle",
            "codec_type": "subtitle",
            "codec_tag_string": "[0][0][0][0]",
            "codec_tag": "0x0000",
            "r_frame_rate": "0/0",
            "avg_frame_rate": "0/0",
            "time_base": "1/1000",
            "start_pts": 0,
            "start_time": "0.000000",
            "duration_ts": 7808672,
            "duration": "7808.672000",
            "nb_read_frames": "1337",
            "disposition": {
                "default": 0,
                "dub": 0,
                "original": 0,
                "comment": 0,
                "lyrics": 0,
                "karaoke": 0,
                "forced": 0,
                "hearing_impaired": 0,
                "visual_impaired": 0,
                "clean_effects": 0,
                "attached_pic": 0,
                "timed_thumbnails": 0,
                "captions": 0,
                "descriptions": 0,
                "metadata": 0,
                "dependent": 0,
                "still_image": 0
            },
            "tags": {
                "language": "rus",
                "title": "Russian",
                "BPS": "78",
                "DURATION": "02:07:48.083000000",
                "NUMBER_OF_FRAMES": "1337",
                "NUMBER_OF_BYTES": "75545",
                "_STATISTICS_WRITING_APP": "mkvmerge v71.1.0 ('Fortitude') 64-bit",
                "_STATISTICS_WRITING_DATE_UTC": "2023-01-06 08:42:02",
                "_STATISTICS_TAGS": "BPS DURATION NUMBER_OF_FRAMES NUMBER_OF_BYTES"
            }
        },
        {
            "index": 33,
            "codec_name": "subrip",
            "codec_long_name": "SubRip subtitle",
            "codec_type": "subtitle",
            "codec_tag_string": "[0][0][0][0]",
            "codec_tag": "0x0000",
            "r_frame_rate": "0/0",
            "avg_frame_rate": "0/0",
            "time_base": "1/1000",
            "start_pts": 0,
            "start_time": "0.000000",
            "duration_ts": 7808672,
            "duration": "7808.672000",
            "nb_read_frames": "1335",
            "disposition": {
                "default": 0,
                "dub": 0,
                "original": 0,
                "comment": 0,
                "lyrics": 0,
                "karaoke": 0,
                "forced": 0,
                "hearing_impaired": 0,
                "visual_impaired": 0,
                "clean_effects": 0,
                "attached_pic": 0,
                "timed_thumbnails": 0,
                "captions": 0,
                "descriptions": 0,
                "metadata": 0,
                "dependent": 0,
                "still_image": 0
            },
            "tags": {
                "language": "swe",
                "title": "Swedish",
                "BPS": "45",
                "DURATION": "02:07:48.083000000",
                "NUMBER_OF_FRAMES": "1335",
                "NUMBER_OF_BYTES": "43767",
                "_STATISTICS_WRITING_APP": "mkvmerge v71.1.0 ('Fortitude') 64-bit",
                "_STATISTICS_WRITING_DATE_UTC": "2023-01-06 08:42:02",
                "_STATISTICS_TAGS": "BPS DURATION NUMBER_OF_FRAMES NUMBER_OF_BYTES"
            }
        },
        {
            "index": 34,
            "codec_name": "subrip",
            "codec_long_name": "SubRip subtitle",
            "codec_type": "subtitle",
            "codec_tag_string": "[0][0][0][0]",
            "codec_tag": "0x0000",
            "r_frame_rate": "0/0",
            "avg_frame_rate": "0/0",
            "time_base": "1/1000",
            "start_pts": 0,
            "start_time": "0.000000",
            "duration_ts": 7808672,
            "duration": "7808.672000",
            "nb_read_frames": "1339",
            "disposition": {
                "default": 0,
                "dub": 0,
                "original": 0,
                "comment": 0,
                "lyrics": 0,
                "karaoke": 0,
                "forced": 0,
                "hearing_impaired": 0,
                "visual_impaired": 0,
                "clean_effects": 0,
                "attached_pic": 0,
                "timed_thumbnails": 0,
                "captions": 0,
                "descriptions": 0,
                "metadata": 0,
                "dependent": 0,
                "still_image": 0
            },
            "tags": {
                "language": "tha",
                "title": "Thai",
                "BPS": "127",
                "DURATION": "02:07:48.083000000",
                "NUMBER_OF_FRAMES": "1339",
                "NUMBER_OF_BYTES": "122552",
                "_STATISTICS_WRITING_APP": "mkvmerge v71.1.0 ('Fortitude') 64-bit",
                "_STATISTICS_WRITING_DATE_UTC": "2023-01-06 08:42:02",
                "_STATISTICS_TAGS": "BPS DURATION NUMBER_OF_FRAMES NUMBER_OF_BYTES"
            }
        },
        {
            "index": 35,
            "codec_name": "subrip",
            "codec_long_name": "SubRip subtitle",
            "codec_type": "subtitle",
            "codec_tag_string": "[0][0][0][0]",
            "codec_tag": "0x0000",
            "r_frame_rate": "0/0",
            "avg_frame_rate": "0/0",
            "time_base": "1/1000",
            "start_pts": 0,
            "start_time": "0.000000",
            "duration_ts": 7808672,
            "duration": "7808.672000",
            "nb_read_frames": "1377",
            "disposition": {
                "default": 0,
                "dub": 0,
                "original": 0,
                "comment": 0,
                "lyrics": 0,
                "karaoke": 0,
                "forced": 0,
                "hearing_impaired": 0,
                "visual_impaired": 0,
                "clean_effects": 0,
                "attached_pic": 0,
                "timed_thumbnails": 0,
                "captions": 0,
                "descriptions": 0,
                "metadata": 0,
                "dependent": 0,
                "still_image": 0
            },
            "tags": {
                "language": "tur",
                "title": "Turkish",
                "BPS": "50",
                "DURATION": "02:08:04.583000000",
                "NUMBER_OF_FRAMES": "1377",
                "NUMBER_OF_BYTES": "48705",
                "_STATISTICS_WRITING_APP": "mkvmerge v71.1.0 ('Fortitude') 64-bit",
                "_STATISTICS_WRITING_DATE_UTC": "2023-01-06 08:42:02",
                "_STATISTICS_TAGS": "BPS DURATION NUMBER_OF_FRAMES NUMBER_OF_BYTES"
            }
        },
        {
            "index": 36,
            "codec_name": "subrip",
            "codec_long_name": "SubRip subtitle",
            "codec_type": "subtitle",
            "codec_tag_string": "[0][0][0][0]",
            "codec_tag": "0x0000",
            "r_frame_rate": "0/0",
            "avg_frame_rate": "0/0",
            "time_base": "1/1000",
            "start_pts": 0,
            "start_time": "0.000000",
            "duration_ts": 7808672,
            "duration": "7808.672000",
            "nb_read_frames": "1340",
            "disposition": {
                "default": 0,
                "dub": 0,
                "original": 0,
                "comment": 0,
                "lyrics": 0,
                "karaoke": 0,
                "forced": 0,
                "hearing_impaired": 0,
                "visual_impaired": 0,
                "clean_effects": 0,
                "attached_pic": 0,
                "timed_thumbnails": 0,
                "captions": 0,
                "descriptions": 0,
                "metadata": 0,
                "dependent": 0,
                "still_image": 0
            },
            "tags": {
                "language": "tur",
                "title": "Turkish",
                "BPS": "48",
                "DURATION": "02:07:48.083000000",
                "NUMBER_OF_FRAMES": "1340",
                "NUMBER_OF_BYTES": "46216",
                "_STATISTICS_WRITING_APP": "mkvmerge v71.1.0 ('Fortitude') 64-bit",
                "_STATISTICS_WRITING_DATE_UTC": "2023-01-06 08:42:02",
                "_STATISTICS_TAGS": "BPS DURATION NUMBER_OF_FRAMES NUMBER_OF_BYTES"
            }
        },
        {
            "index": 37,
            "codec_name": "subrip",
            "codec_long_name": "SubRip subtitle",
            "codec_type": "subtitle",
            "codec_tag_string": "[0][0][0][0]",
            "codec_tag": "0x0000",
            "r_frame_rate": "0/0",
            "avg_frame_rate": "0/0",
            "time_base": "1/1000",
            "start_pts": 0,
            "start_time": "0.000000",
            "duration_ts": 7808672,
            "duration": "7808.672000",
            "nb_read_frames": "1659",
            "disposition": {
                "default": 0,
                "dub": 0,
                "original": 0,
                "comment": 0,
                "lyrics": 0,
                "karaoke": 0,
                "forced": 0,
                "hearing_impaired": 0,
                "visual_impaired": 0,
                "clean_effects": 0,
                "attached_pic": 0,
                "timed_thumbnails": 0,
                "captions": 0,
                "descriptions": 0,
                "metadata": 0,
                "dependent": 0,
                "still_image": 0
            },
            "tags": {
                "language": "tur",
                "title": "Turkish (SDH)",
                "BPS": "60",
                "DURATION": "02:08:04.583000000",
                "NUMBER_OF_FRAMES": "1659",
                "NUMBER_OF_BYTES": "58258",
                "_STATISTICS_WRITING_APP": "mkvmerge v71.1.0 ('Fortitude') 64-bit",
                "_STATISTICS_WRITING_DATE_UTC": "2023-01-06 08:42:02",
                "_STATISTICS_TAGS": "BPS DURATION NUMBER_OF_FRAMES NUMBER_OF_BYTES"
            }
        },
        {
            "index": 38,
            "codec_name": "subrip",
            "codec_long_name": "SubRip subtitle",
            "codec_type": "subtitle",
            "codec_tag_string": "[0][0][0][0]",
            "codec_tag": "0x0000",
            "r_frame_rate": "0/0",
            "avg_frame_rate": "0/0",
            "time_base": "1/1000",
            "start_pts": 0,
            "start_time": "0.000000",
            "duration_ts": 7808672,
            "duration": "7808.672000",
            "nb_read_frames": "1337",
            "disposition": {
                "default": 0,
                "dub": 0,
                "original": 0,
                "comment": 0,
                "lyrics": 0,
                "karaoke": 0,
                "forced": 0,
                "hearing_impaired": 0,
                "visual_impaired": 0,
                "clean_effects": 0,
                "attached_pic": 0,
                "timed_thumbnails": 0,
                "captions": 0,
                "descriptions": 0,
                "metadata": 0,
                "dependent": 0,
                "still_image": 0
            },
            "tags": {
                "language": "ukr",
                "title": "Ukrainian",
                "BPS": "79",
                "DURATION": "02:07:48.083000000",
                "NUMBER_OF_FRAMES": "1337",
                "NUMBER_OF_BYTES": "76195",
                "_STATISTICS_WRITING_APP": "mkvmerge v71.1.0 ('Fortitude') 64-bit",
                "_STATISTICS_WRITING_DATE_UTC": "2023-01-06 08:42:02",
                "_STATISTICS_TAGS": "BPS DURATION NUMBER_OF_FRAMES NUMBER_OF_BYTES"
            }
        },
        {
            "index": 39,
            "codec_name": "subrip",
            "codec_long_name": "SubRip subtitle",
            "codec_type": "subtitle",
            "codec_tag_string": "[0][0][0][0]",
            "codec_tag": "0x0000",
            "r_frame_rate": "0/0",
            "avg_frame_rate": "0/0",
            "time_base": "1/1000",
            "start_pts": 0,
            "start_time": "0.000000",
            "duration_ts": 7808672,
            "duration": "7808.672000",
            "nb_read_frames": "1337",
            "disposition": {
                "default": 0,
                "dub": 0,
                "original": 0,
                "comment": 0,
                "lyrics": 0,
                "karaoke": 0,
                "forced": 0,
                "hearing_impaired": 0,
                "visual_impaired": 0,
                "clean_effects": 0,
                "attached_pic": 0,
                "timed_thumbnails": 0,
                "captions": 0,
                "descriptions": 0,
                "metadata": 0,
                "dependent": 0,
                "still_image": 0
            },
            "tags": {
                "language": "vie",
                "title": "Vietnamese",
                "BPS": "63",
                "DURATION": "02:08:04.083000000",
                "NUMBER_OF_FRAMES": "1337",
                "NUMBER_OF_BYTES": "61161",
                "_STATISTICS_WRITING_APP": "mkvmerge v71.1.0 ('Fortitude') 64-bit",
                "_STATISTICS_WRITING_DATE_UTC": "2023-01-06 08:42:02",
                "_STATISTICS_TAGS": "BPS DURATION NUMBER_OF_FRAMES NUMBER_OF_BYTES"
            }
        },
        {
            "index": 40,
            "codec_name": "subrip",
            "codec_long_name": "SubRip subtitle",
            "codec_type": "subtitle",
            "codec_tag_string": "[0][0][0][0]",
            "codec_tag": "0x0000",
            "r_frame_rate": "0/0",
            "avg_frame_rate": "0/0",
            "time_base": "1/1000",
            "start_pts": 0,
            "start_time": "0.000000",
            "duration_ts": 7808672,
            "duration": "7808.672000",
            "nb_read_frames": "1339",
            "disposition": {
                "default": 0,
                "dub": 0,
                "original": 0,
                "comment": 0,
                "lyrics": 0,
                "karaoke": 0,
                "forced": 0,
                "hearing_impaired": 0,
                "visual_impaired": 0,
                "clean_effects": 0,
                "attached_pic": 0,
                "timed_thumbnails": 0,
                "captions": 0,
                "descriptions": 0,
                "metadata": 0,
                "dependent": 0,
                "still_image": 0
            },
            "tags": {
                "language": "chi",
                "title": "Simplified, Chinese",
                "BPS": "48",
                "DURATION": "02:07:48.083000000",
                "NUMBER_OF_FRAMES": "1339",
                "NUMBER_OF_BYTES": "46152",
                "_STATISTICS_WRITING_APP": "mkvmerge v71.1.0 ('Fortitude') 64-bit",
                "_STATISTICS_WRITING_DATE_UTC": "2023-01-06 08:42:02",
                "_STATISTICS_TAGS": "BPS DURATION NUMBER_OF_FRAMES NUMBER_OF_BYTES"
            }
        },
        {
            "index": 41,
            "codec_name": "subrip",
            "codec_long_name": "SubRip subtitle",
            "codec_type": "subtitle",
            "codec_tag_string": "[0][0][0][0]",
            "codec_tag": "0x0000",
            "r_frame_rate": "0/0",
            "avg_frame_rate": "0/0",
            "time_base": "1/1000",
            "start_pts": 0,
            "start_time": "0.000000",
            "duration_ts": 7808672,
            "duration": "7808.672000",
            "nb_read_frames": "1338",
            "disposition": {
                "default": 0,
                "dub": 0,
                "original": 0,
                "comment": 0,
                "lyrics": 0,
                "karaoke": 0,
                "forced": 0,
                "hearing_impaired": 0,
                "visual_impaired": 0,
                "clean_effects": 0,
                "attached_pic": 0,
                "timed_thumbnails": 0,
                "captions": 0,
                "descriptions": 0,
                "metadata": 0,
                "dependent": 0,
                "still_image": 0
            },
            "tags": {
                "language": "chi",
                "title": "Traditional, Chinese",
                "BPS": "45",
                "DURATION": "02:07:48.083000000",
                "NUMBER_OF_FRAMES": "1338",
                "NUMBER_OF_BYTES": "43305",
                "_STATISTICS_WRITING_APP": "mkvmerge v71.1.0 ('Fortitude') 64-bit",
                "_STATISTICS_WRITING_DATE_UTC": "2023-01-06 08:42:02",
                "_STATISTICS_TAGS": "BPS DURATION NUMBER_OF_FRAMES NUMBER_OF_BYTES"
            }
        }
    ],
    "format": {
        "filename": "The Pale Blue Eye [GER+ENG].mkv",
        "nb_streams": 42,
        "nb_programs": 0,
        "format_name": "matroska,webm",
        "format_long_name": "Matroska / WebM",
        "start_time": "0.000000",
        "duration": "7808.672000",
        "size": "3032829820",
        "bit_rate": "3107140",
        "probe_score": 100,
        "tags": {
            "title": "Der.denkwuerdige.Fall.des.Mr.Poe.2022.German.DL.1080p.DV.HDR.NF.WEB-PS",
            "encoder": "libebml v1.4.4 + libmatroska v1.7.1",
            "creation_time": "2023-01-06T08:42:02.000000Z"
        }
    }
}
